<?xml version="1.0" encoding="utf-8" standalone="no"?>
<!DOCTYPE svg PUBLIC "-//W3C//DTD SVG 1.1//EN"
  "http://www.w3.org/Graphics/SVG/1.1/DTD/svg11.dtd">
<svg xmlns:xlink="http://www.w3.org/1999/xlink" width="900pt" height="360pt" viewBox="0 0 900 360" xmlns="http://www.w3.org/2000/svg" version="1.1">
 <metadata>
  <rdf:RDF xmlns:dc="http://purl.org/dc/elements/1.1/" xmlns:cc="http://creativecommons.org/ns#" xmlns:rdf="http://www.w3.org/1999/02/22-rdf-syntax-ns#">
   <cc:Work>
    <dc:type rdf:resource="http://purl.org/dc/dcmitype/StillImage"/>
    <dc:date>2023-02-02T01:38:52.934332</dc:date>
    <dc:format>image/svg+xml</dc:format>
    <dc:creator>
     <cc:Agent>
      <dc:title>Matplotlib v3.6.2, https://matplotlib.org/</dc:title>
     </cc:Agent>
    </dc:creator>
   </cc:Work>
  </rdf:RDF>
 </metadata>
 <defs>
  <style type="text/css">*{stroke-linejoin: round; stroke-linecap: butt}</style>
 </defs>
 <g id="figure_1">
  <g id="patch_1">
   <path d="M 0 360 
L 900 360 
L 900 0 
L 0 0 
z
" style="fill: #ffffff"/>
  </g>
  <g id="axes_1">
   <g id="patch_2">
    <path d="M 44.48125 318.84375 
L 889.2 318.84375 
L 889.2 25.918125 
L 44.48125 25.918125 
z
" style="fill: #ffffff"/>
   </g>
   <g id="PolyCollection_1">
    <defs>
     <path id="mb3c6e3b69a" d="M 82.877557 -85.862555 
L 82.877557 -70.139192 
L 90.713538 -73.845866 
L 98.549519 -67.921234 
L 106.3855 -62.230411 
L 114.221481 -60.501443 
L 122.057462 -61.683481 
L 129.893443 -62.787605 
L 137.729424 -54.471051 
L 145.565405 -61.683094 
L 153.401386 -57.974351 
L 161.237367 -61.006988 
L 169.073348 -80.128239 
L 176.909329 -61.316922 
L 184.74531 -62.873735 
L 192.581291 -71.172805 
L 200.417272 -61.294328 
L 208.253253 -65.308407 
L 216.089234 -64.532904 
L 223.925215 -64.990193 
L 231.761196 -61.71996 
L 239.597176 -59.414765 
L 247.433157 -62.087525 
L 255.269138 -64.843853 
L 263.105119 -60.703105 
L 270.9411 -64.672441 
L 278.777081 -59.56351 
L 286.613062 -57.878001 
L 294.449043 -66.504901 
L 302.285024 -59.372654 
L 310.121005 -63.254098 
L 317.956986 -62.233627 
L 325.792967 -60.062078 
L 333.628948 -62.130763 
L 341.464929 -63.556191 
L 349.30091 -68.959492 
L 357.136891 -76.735486 
L 364.972872 -72.839486 
L 372.808853 -74.407399 
L 380.644834 -74.746668 
L 388.480815 -75.155418 
L 396.316796 -74.716912 
L 404.152777 -86.700886 
L 411.988758 -83.796615 
L 419.824739 -84.937326 
L 427.66072 -111.039049 
L 435.496701 -97.596774 
L 443.332682 -98.859009 
L 451.168663 -103.136694 
L 459.004644 -103.246139 
L 466.840625 -101.728995 
L 474.676606 -104.809706 
L 482.512587 -112.172937 
L 490.348568 -102.643935 
L 498.184549 -104.527153 
L 506.02053 -105.754491 
L 513.856511 -104.841666 
L 521.692492 -108.116011 
L 529.528473 -110.721397 
L 537.364454 -108.899647 
L 545.200435 -111.580088 
L 553.036416 -110.400987 
L 560.872397 -114.406033 
L 568.708378 -116.490274 
L 576.544359 -111.848604 
L 584.38034 -108.617988 
L 592.216321 -116.706991 
L 600.052302 -112.171591 
L 607.888283 -114.360862 
L 615.724264 -111.413678 
L 623.560245 -118.274211 
L 631.396226 -121.432067 
L 639.232207 -135.32096 
L 647.068188 -126.715561 
L 654.904169 -127.251306 
L 662.74015 -125.986822 
L 670.576131 -131.092806 
L 678.412112 -131.275432 
L 686.248093 -135.546316 
L 694.084074 -149.97359 
L 701.920054 -153.123784 
L 709.756035 -148.407031 
L 717.592016 -152.477273 
L 725.427997 -147.114785 
L 733.263978 -151.699772 
L 741.099959 -156.401485 
L 748.93594 -159.16869 
L 756.771921 -147.106935 
L 764.607902 -160.062169 
L 772.443883 -161.413835 
L 780.279864 -159.108066 
L 788.115845 -153.112683 
L 795.951826 -150.728388 
L 803.787807 -148.188606 
L 811.623788 -150.043148 
L 819.459769 -153.907967 
L 827.29575 -168.940513 
L 835.131731 -168.116366 
L 842.967712 -177.209668 
L 850.803693 -174.838279 
L 850.803693 -320.767074 
L 850.803693 -320.767074 
L 842.967712 -307.894181 
L 835.131731 -302.044709 
L 827.29575 -296.516779 
L 819.459769 -283.234934 
L 811.623788 -279.427667 
L 803.787807 -269.909179 
L 795.951826 -268.664621 
L 788.115845 -268.661085 
L 780.279864 -261.711911 
L 772.443883 -261.389256 
L 764.607902 -255.017165 
L 756.771921 -253.477694 
L 748.93594 -255.504958 
L 741.099959 -255.545668 
L 733.263978 -253.249727 
L 725.427997 -247.009294 
L 717.592016 -247.460685 
L 709.756035 -243.409213 
L 701.920054 -249.959483 
L 694.084074 -242.666391 
L 686.248093 -229.055673 
L 678.412112 -225.444203 
L 670.576131 -224.339486 
L 662.74015 -220.758588 
L 654.904169 -222.326626 
L 647.068188 -222.903796 
L 639.232207 -230.23518 
L 631.396226 -217.720129 
L 623.560245 -216.811626 
L 615.724264 -207.256193 
L 607.888283 -206.385469 
L 600.052302 -207.48321 
L 592.216321 -211.9218 
L 584.38034 -204.095753 
L 576.544359 -207.075044 
L 568.708378 -211.366055 
L 560.872397 -210.423445 
L 553.036416 -206.699376 
L 545.200435 -206.173155 
L 537.364454 -206.56783 
L 529.528473 -210.914759 
L 521.692492 -206.568745 
L 513.856511 -203.403577 
L 506.02053 -205.982295 
L 498.184549 -200.169182 
L 490.348568 -193.726302 
L 482.512587 -208.676741 
L 474.676606 -201.522844 
L 466.840625 -201.684485 
L 459.004644 -202.773402 
L 451.168663 -198.247089 
L 443.332682 -191.709796 
L 435.496701 -193.056633 
L 427.66072 -207.605391 
L 419.824739 -175.928297 
L 411.988758 -174.514865 
L 404.152777 -173.754766 
L 396.316796 -158.108466 
L 388.480815 -153.642712 
L 380.644834 -153.536961 
L 372.808853 -157.986172 
L 364.972872 -156.221734 
L 357.136891 -159.237741 
L 349.30091 -146.544819 
L 341.464929 -125.792321 
L 333.628948 -127.966209 
L 325.792967 -117.455169 
L 317.956986 -121.94762 
L 310.121005 -112.896308 
L 302.285024 -115.929075 
L 294.449043 -124.773092 
L 286.613062 -130.374998 
L 278.777081 -112.430604 
L 270.9411 -109.223446 
L 263.105119 -124.365909 
L 255.269138 -133.30095 
L 247.433157 -112.717094 
L 239.597176 -114.365265 
L 231.761196 -108.759186 
L 223.925215 -101.26927 
L 216.089234 -141.709641 
L 208.253253 -112.928669 
L 200.417272 -131.578629 
L 192.581291 -131.506467 
L 184.74531 -121.145256 
L 176.909329 -98.975974 
L 169.073348 -150.348503 
L 161.237367 -103.16949 
L 153.401386 -118.334806 
L 145.565405 -102.887582 
L 137.729424 -117.003009 
L 129.893443 -122.380142 
L 122.057462 -118.468959 
L 114.221481 -98.469802 
L 106.3855 -104.102987 
L 98.549519 -105.549931 
L 90.713538 -131.825948 
L 82.877557 -85.862555 
z
" style="stroke: #1f77b4; stroke-opacity: 0.2"/>
    </defs>
    <g clip-path="url(#p9ce69d867b)">
     <use xlink:href="#mb3c6e3b69a" x="0" y="360" style="fill: #1f77b4; fill-opacity: 0.2; stroke: #1f77b4; stroke-opacity: 0.2"/>
    </g>
   </g>
   <g id="matplotlib.axis_1">
    <g id="xtick_1">
     <g id="line2d_1">
      <defs>
       <path id="maa0fa0218f" d="M 0 0 
L 0 3.5 
" style="stroke: #000000; stroke-width: 0.8"/>
      </defs>
      <g>
       <use xlink:href="#maa0fa0218f" x="67.205595" y="318.84375" style="stroke: #000000; stroke-width: 0.8"/>
      </g>
     </g>
     <g id="text_1">
      <!-- 1920 -->
      <g transform="translate(54.480595 333.442187) scale(0.1 -0.1)">
       <defs>
        <path id="DejaVuSans-31" d="M 794 531 
L 1825 531 
L 1825 4091 
L 703 3866 
L 703 4441 
L 1819 4666 
L 2450 4666 
L 2450 531 
L 3481 531 
L 3481 0 
L 794 0 
L 794 531 
z
" transform="scale(0.015625)"/>
        <path id="DejaVuSans-39" d="M 703 97 
L 703 672 
Q 941 559 1184 500 
Q 1428 441 1663 441 
Q 2288 441 2617 861 
Q 2947 1281 2994 2138 
Q 2813 1869 2534 1725 
Q 2256 1581 1919 1581 
Q 1219 1581 811 2004 
Q 403 2428 403 3163 
Q 403 3881 828 4315 
Q 1253 4750 1959 4750 
Q 2769 4750 3195 4129 
Q 3622 3509 3622 2328 
Q 3622 1225 3098 567 
Q 2575 -91 1691 -91 
Q 1453 -91 1209 -44 
Q 966 3 703 97 
z
M 1959 2075 
Q 2384 2075 2632 2365 
Q 2881 2656 2881 3163 
Q 2881 3666 2632 3958 
Q 2384 4250 1959 4250 
Q 1534 4250 1286 3958 
Q 1038 3666 1038 3163 
Q 1038 2656 1286 2365 
Q 1534 2075 1959 2075 
z
" transform="scale(0.015625)"/>
        <path id="DejaVuSans-32" d="M 1228 531 
L 3431 531 
L 3431 0 
L 469 0 
L 469 531 
Q 828 903 1448 1529 
Q 2069 2156 2228 2338 
Q 2531 2678 2651 2914 
Q 2772 3150 2772 3378 
Q 2772 3750 2511 3984 
Q 2250 4219 1831 4219 
Q 1534 4219 1204 4116 
Q 875 4013 500 3803 
L 500 4441 
Q 881 4594 1212 4672 
Q 1544 4750 1819 4750 
Q 2544 4750 2975 4387 
Q 3406 4025 3406 3419 
Q 3406 3131 3298 2873 
Q 3191 2616 2906 2266 
Q 2828 2175 2409 1742 
Q 1991 1309 1228 531 
z
" transform="scale(0.015625)"/>
        <path id="DejaVuSans-30" d="M 2034 4250 
Q 1547 4250 1301 3770 
Q 1056 3291 1056 2328 
Q 1056 1369 1301 889 
Q 1547 409 2034 409 
Q 2525 409 2770 889 
Q 3016 1369 3016 2328 
Q 3016 3291 2770 3770 
Q 2525 4250 2034 4250 
z
M 2034 4750 
Q 2819 4750 3233 4129 
Q 3647 3509 3647 2328 
Q 3647 1150 3233 529 
Q 2819 -91 2034 -91 
Q 1250 -91 836 529 
Q 422 1150 422 2328 
Q 422 3509 836 4129 
Q 1250 4750 2034 4750 
z
" transform="scale(0.015625)"/>
       </defs>
       <use xlink:href="#DejaVuSans-31"/>
       <use xlink:href="#DejaVuSans-39" x="63.623047"/>
       <use xlink:href="#DejaVuSans-32" x="127.246094"/>
       <use xlink:href="#DejaVuSans-30" x="190.869141"/>
      </g>
     </g>
    </g>
    <g id="xtick_2">
     <g id="line2d_2">
      <g>
       <use xlink:href="#maa0fa0218f" x="223.925215" y="318.84375" style="stroke: #000000; stroke-width: 0.8"/>
      </g>
     </g>
     <g id="text_2">
      <!-- 1940 -->
      <g transform="translate(211.200215 333.442187) scale(0.1 -0.1)">
       <defs>
        <path id="DejaVuSans-34" d="M 2419 4116 
L 825 1625 
L 2419 1625 
L 2419 4116 
z
M 2253 4666 
L 3047 4666 
L 3047 1625 
L 3713 1625 
L 3713 1100 
L 3047 1100 
L 3047 0 
L 2419 0 
L 2419 1100 
L 313 1100 
L 313 1709 
L 2253 4666 
z
" transform="scale(0.015625)"/>
       </defs>
       <use xlink:href="#DejaVuSans-31"/>
       <use xlink:href="#DejaVuSans-39" x="63.623047"/>
       <use xlink:href="#DejaVuSans-34" x="127.246094"/>
       <use xlink:href="#DejaVuSans-30" x="190.869141"/>
      </g>
     </g>
    </g>
    <g id="xtick_3">
     <g id="line2d_3">
      <g>
       <use xlink:href="#maa0fa0218f" x="380.644834" y="318.84375" style="stroke: #000000; stroke-width: 0.8"/>
      </g>
     </g>
     <g id="text_3">
      <!-- 1960 -->
      <g transform="translate(367.919834 333.442187) scale(0.1 -0.1)">
       <defs>
        <path id="DejaVuSans-36" d="M 2113 2584 
Q 1688 2584 1439 2293 
Q 1191 2003 1191 1497 
Q 1191 994 1439 701 
Q 1688 409 2113 409 
Q 2538 409 2786 701 
Q 3034 994 3034 1497 
Q 3034 2003 2786 2293 
Q 2538 2584 2113 2584 
z
M 3366 4563 
L 3366 3988 
Q 3128 4100 2886 4159 
Q 2644 4219 2406 4219 
Q 1781 4219 1451 3797 
Q 1122 3375 1075 2522 
Q 1259 2794 1537 2939 
Q 1816 3084 2150 3084 
Q 2853 3084 3261 2657 
Q 3669 2231 3669 1497 
Q 3669 778 3244 343 
Q 2819 -91 2113 -91 
Q 1303 -91 875 529 
Q 447 1150 447 2328 
Q 447 3434 972 4092 
Q 1497 4750 2381 4750 
Q 2619 4750 2861 4703 
Q 3103 4656 3366 4563 
z
" transform="scale(0.015625)"/>
       </defs>
       <use xlink:href="#DejaVuSans-31"/>
       <use xlink:href="#DejaVuSans-39" x="63.623047"/>
       <use xlink:href="#DejaVuSans-36" x="127.246094"/>
       <use xlink:href="#DejaVuSans-30" x="190.869141"/>
      </g>
     </g>
    </g>
    <g id="xtick_4">
     <g id="line2d_4">
      <g>
       <use xlink:href="#maa0fa0218f" x="537.364454" y="318.84375" style="stroke: #000000; stroke-width: 0.8"/>
      </g>
     </g>
     <g id="text_4">
      <!-- 1980 -->
      <g transform="translate(524.639454 333.442187) scale(0.1 -0.1)">
       <defs>
        <path id="DejaVuSans-38" d="M 2034 2216 
Q 1584 2216 1326 1975 
Q 1069 1734 1069 1313 
Q 1069 891 1326 650 
Q 1584 409 2034 409 
Q 2484 409 2743 651 
Q 3003 894 3003 1313 
Q 3003 1734 2745 1975 
Q 2488 2216 2034 2216 
z
M 1403 2484 
Q 997 2584 770 2862 
Q 544 3141 544 3541 
Q 544 4100 942 4425 
Q 1341 4750 2034 4750 
Q 2731 4750 3128 4425 
Q 3525 4100 3525 3541 
Q 3525 3141 3298 2862 
Q 3072 2584 2669 2484 
Q 3125 2378 3379 2068 
Q 3634 1759 3634 1313 
Q 3634 634 3220 271 
Q 2806 -91 2034 -91 
Q 1263 -91 848 271 
Q 434 634 434 1313 
Q 434 1759 690 2068 
Q 947 2378 1403 2484 
z
M 1172 3481 
Q 1172 3119 1398 2916 
Q 1625 2713 2034 2713 
Q 2441 2713 2670 2916 
Q 2900 3119 2900 3481 
Q 2900 3844 2670 4047 
Q 2441 4250 2034 4250 
Q 1625 4250 1398 4047 
Q 1172 3844 1172 3481 
z
" transform="scale(0.015625)"/>
       </defs>
       <use xlink:href="#DejaVuSans-31"/>
       <use xlink:href="#DejaVuSans-39" x="63.623047"/>
       <use xlink:href="#DejaVuSans-38" x="127.246094"/>
       <use xlink:href="#DejaVuSans-30" x="190.869141"/>
      </g>
     </g>
    </g>
    <g id="xtick_5">
     <g id="line2d_5">
      <g>
       <use xlink:href="#maa0fa0218f" x="694.084074" y="318.84375" style="stroke: #000000; stroke-width: 0.8"/>
      </g>
     </g>
     <g id="text_5">
      <!-- 2000 -->
      <g transform="translate(681.359074 333.442187) scale(0.1 -0.1)">
       <use xlink:href="#DejaVuSans-32"/>
       <use xlink:href="#DejaVuSans-30" x="63.623047"/>
       <use xlink:href="#DejaVuSans-30" x="127.246094"/>
       <use xlink:href="#DejaVuSans-30" x="190.869141"/>
      </g>
     </g>
    </g>
    <g id="xtick_6">
     <g id="line2d_6">
      <g>
       <use xlink:href="#maa0fa0218f" x="850.803693" y="318.84375" style="stroke: #000000; stroke-width: 0.8"/>
      </g>
     </g>
     <g id="text_6">
      <!-- 2020 -->
      <g transform="translate(838.078693 333.442187) scale(0.1 -0.1)">
       <use xlink:href="#DejaVuSans-32"/>
       <use xlink:href="#DejaVuSans-30" x="63.623047"/>
       <use xlink:href="#DejaVuSans-32" x="127.246094"/>
       <use xlink:href="#DejaVuSans-30" x="190.869141"/>
      </g>
     </g>
    </g>
    <g id="text_7">
     <!-- year -->
     <g transform="translate(455.685156 347.120312) scale(0.1 -0.1)">
      <defs>
       <path id="DejaVuSans-79" d="M 2059 -325 
Q 1816 -950 1584 -1140 
Q 1353 -1331 966 -1331 
L 506 -1331 
L 506 -850 
L 844 -850 
Q 1081 -850 1212 -737 
Q 1344 -625 1503 -206 
L 1606 56 
L 191 3500 
L 800 3500 
L 1894 763 
L 2988 3500 
L 3597 3500 
L 2059 -325 
z
" transform="scale(0.015625)"/>
       <path id="DejaVuSans-65" d="M 3597 1894 
L 3597 1613 
L 953 1613 
Q 991 1019 1311 708 
Q 1631 397 2203 397 
Q 2534 397 2845 478 
Q 3156 559 3463 722 
L 3463 178 
Q 3153 47 2828 -22 
Q 2503 -91 2169 -91 
Q 1331 -91 842 396 
Q 353 884 353 1716 
Q 353 2575 817 3079 
Q 1281 3584 2069 3584 
Q 2775 3584 3186 3129 
Q 3597 2675 3597 1894 
z
M 3022 2063 
Q 3016 2534 2758 2815 
Q 2500 3097 2075 3097 
Q 1594 3097 1305 2825 
Q 1016 2553 972 2059 
L 3022 2063 
z
" transform="scale(0.015625)"/>
       <path id="DejaVuSans-61" d="M 2194 1759 
Q 1497 1759 1228 1600 
Q 959 1441 959 1056 
Q 959 750 1161 570 
Q 1363 391 1709 391 
Q 2188 391 2477 730 
Q 2766 1069 2766 1631 
L 2766 1759 
L 2194 1759 
z
M 3341 1997 
L 3341 0 
L 2766 0 
L 2766 531 
Q 2569 213 2275 61 
Q 1981 -91 1556 -91 
Q 1019 -91 701 211 
Q 384 513 384 1019 
Q 384 1609 779 1909 
Q 1175 2209 1959 2209 
L 2766 2209 
L 2766 2266 
Q 2766 2663 2505 2880 
Q 2244 3097 1772 3097 
Q 1472 3097 1187 3025 
Q 903 2953 641 2809 
L 641 3341 
Q 956 3463 1253 3523 
Q 1550 3584 1831 3584 
Q 2591 3584 2966 3190 
Q 3341 2797 3341 1997 
z
" transform="scale(0.015625)"/>
       <path id="DejaVuSans-72" d="M 2631 2963 
Q 2534 3019 2420 3045 
Q 2306 3072 2169 3072 
Q 1681 3072 1420 2755 
Q 1159 2438 1159 1844 
L 1159 0 
L 581 0 
L 581 3500 
L 1159 3500 
L 1159 2956 
Q 1341 3275 1631 3429 
Q 1922 3584 2338 3584 
Q 2397 3584 2469 3576 
Q 2541 3569 2628 3553 
L 2631 2963 
z
" transform="scale(0.015625)"/>
      </defs>
      <use xlink:href="#DejaVuSans-79"/>
      <use xlink:href="#DejaVuSans-65" x="59.179688"/>
      <use xlink:href="#DejaVuSans-61" x="120.703125"/>
      <use xlink:href="#DejaVuSans-72" x="181.982422"/>
     </g>
    </g>
   </g>
   <g id="matplotlib.axis_2">
    <g id="ytick_1">
     <g id="line2d_7">
      <defs>
       <path id="m67654d5d46" d="M 0 0 
L -3.5 0 
" style="stroke: #000000; stroke-width: 0.8"/>
      </defs>
      <g>
       <use xlink:href="#m67654d5d46" x="44.48125" y="293.603361" style="stroke: #000000; stroke-width: 0.8"/>
      </g>
     </g>
     <g id="text_8">
      <!-- 0 -->
      <g transform="translate(31.11875 297.402579) scale(0.1 -0.1)">
       <use xlink:href="#DejaVuSans-30"/>
      </g>
     </g>
    </g>
    <g id="ytick_2">
     <g id="line2d_8">
      <g>
       <use xlink:href="#m67654d5d46" x="44.48125" y="257.340128" style="stroke: #000000; stroke-width: 0.8"/>
      </g>
     </g>
     <g id="text_9">
      <!-- 10 -->
      <g transform="translate(24.75625 261.139347) scale(0.1 -0.1)">
       <use xlink:href="#DejaVuSans-31"/>
       <use xlink:href="#DejaVuSans-30" x="63.623047"/>
      </g>
     </g>
    </g>
    <g id="ytick_3">
     <g id="line2d_9">
      <g>
       <use xlink:href="#m67654d5d46" x="44.48125" y="221.076896" style="stroke: #000000; stroke-width: 0.8"/>
      </g>
     </g>
     <g id="text_10">
      <!-- 20 -->
      <g transform="translate(24.75625 224.876115) scale(0.1 -0.1)">
       <use xlink:href="#DejaVuSans-32"/>
       <use xlink:href="#DejaVuSans-30" x="63.623047"/>
      </g>
     </g>
    </g>
    <g id="ytick_4">
     <g id="line2d_10">
      <g>
       <use xlink:href="#m67654d5d46" x="44.48125" y="184.813664" style="stroke: #000000; stroke-width: 0.8"/>
      </g>
     </g>
     <g id="text_11">
      <!-- 30 -->
      <g transform="translate(24.75625 188.612883) scale(0.1 -0.1)">
       <defs>
        <path id="DejaVuSans-33" d="M 2597 2516 
Q 3050 2419 3304 2112 
Q 3559 1806 3559 1356 
Q 3559 666 3084 287 
Q 2609 -91 1734 -91 
Q 1441 -91 1130 -33 
Q 819 25 488 141 
L 488 750 
Q 750 597 1062 519 
Q 1375 441 1716 441 
Q 2309 441 2620 675 
Q 2931 909 2931 1356 
Q 2931 1769 2642 2001 
Q 2353 2234 1838 2234 
L 1294 2234 
L 1294 2753 
L 1863 2753 
Q 2328 2753 2575 2939 
Q 2822 3125 2822 3475 
Q 2822 3834 2567 4026 
Q 2313 4219 1838 4219 
Q 1578 4219 1281 4162 
Q 984 4106 628 3988 
L 628 4550 
Q 988 4650 1302 4700 
Q 1616 4750 1894 4750 
Q 2613 4750 3031 4423 
Q 3450 4097 3450 3541 
Q 3450 3153 3228 2886 
Q 3006 2619 2597 2516 
z
" transform="scale(0.015625)"/>
       </defs>
       <use xlink:href="#DejaVuSans-33"/>
       <use xlink:href="#DejaVuSans-30" x="63.623047"/>
      </g>
     </g>
    </g>
    <g id="ytick_5">
     <g id="line2d_11">
      <g>
       <use xlink:href="#m67654d5d46" x="44.48125" y="148.550432" style="stroke: #000000; stroke-width: 0.8"/>
      </g>
     </g>
     <g id="text_12">
      <!-- 40 -->
      <g transform="translate(24.75625 152.349651) scale(0.1 -0.1)">
       <use xlink:href="#DejaVuSans-34"/>
       <use xlink:href="#DejaVuSans-30" x="63.623047"/>
      </g>
     </g>
    </g>
    <g id="ytick_6">
     <g id="line2d_12">
      <g>
       <use xlink:href="#m67654d5d46" x="44.48125" y="112.2872" style="stroke: #000000; stroke-width: 0.8"/>
      </g>
     </g>
     <g id="text_13">
      <!-- 50 -->
      <g transform="translate(24.75625 116.086419) scale(0.1 -0.1)">
       <defs>
        <path id="DejaVuSans-35" d="M 691 4666 
L 3169 4666 
L 3169 4134 
L 1269 4134 
L 1269 2991 
Q 1406 3038 1543 3061 
Q 1681 3084 1819 3084 
Q 2600 3084 3056 2656 
Q 3513 2228 3513 1497 
Q 3513 744 3044 326 
Q 2575 -91 1722 -91 
Q 1428 -91 1123 -41 
Q 819 9 494 109 
L 494 744 
Q 775 591 1075 516 
Q 1375 441 1709 441 
Q 2250 441 2565 725 
Q 2881 1009 2881 1497 
Q 2881 1984 2565 2268 
Q 2250 2553 1709 2553 
Q 1456 2553 1204 2497 
Q 953 2441 691 2322 
L 691 4666 
z
" transform="scale(0.015625)"/>
       </defs>
       <use xlink:href="#DejaVuSans-35"/>
       <use xlink:href="#DejaVuSans-30" x="63.623047"/>
      </g>
     </g>
    </g>
    <g id="ytick_7">
     <g id="line2d_13">
      <g>
       <use xlink:href="#m67654d5d46" x="44.48125" y="76.023968" style="stroke: #000000; stroke-width: 0.8"/>
      </g>
     </g>
     <g id="text_14">
      <!-- 60 -->
      <g transform="translate(24.75625 79.823187) scale(0.1 -0.1)">
       <use xlink:href="#DejaVuSans-36"/>
       <use xlink:href="#DejaVuSans-30" x="63.623047"/>
      </g>
     </g>
    </g>
    <g id="ytick_8">
     <g id="line2d_14">
      <g>
       <use xlink:href="#m67654d5d46" x="44.48125" y="39.760736" style="stroke: #000000; stroke-width: 0.8"/>
      </g>
     </g>
     <g id="text_15">
      <!-- 70 -->
      <g transform="translate(24.75625 43.559955) scale(0.1 -0.1)">
       <defs>
        <path id="DejaVuSans-37" d="M 525 4666 
L 3525 4666 
L 3525 4397 
L 1831 0 
L 1172 0 
L 2766 4134 
L 525 4134 
L 525 4666 
z
" transform="scale(0.015625)"/>
       </defs>
       <use xlink:href="#DejaVuSans-37"/>
       <use xlink:href="#DejaVuSans-30" x="63.623047"/>
      </g>
     </g>
    </g>
    <g id="text_16">
     <!-- track_popularity -->
     <g transform="translate(18.398438 212.998906) rotate(-90) scale(0.1 -0.1)">
      <defs>
       <path id="DejaVuSans-74" d="M 1172 4494 
L 1172 3500 
L 2356 3500 
L 2356 3053 
L 1172 3053 
L 1172 1153 
Q 1172 725 1289 603 
Q 1406 481 1766 481 
L 2356 481 
L 2356 0 
L 1766 0 
Q 1100 0 847 248 
Q 594 497 594 1153 
L 594 3053 
L 172 3053 
L 172 3500 
L 594 3500 
L 594 4494 
L 1172 4494 
z
" transform="scale(0.015625)"/>
       <path id="DejaVuSans-63" d="M 3122 3366 
L 3122 2828 
Q 2878 2963 2633 3030 
Q 2388 3097 2138 3097 
Q 1578 3097 1268 2742 
Q 959 2388 959 1747 
Q 959 1106 1268 751 
Q 1578 397 2138 397 
Q 2388 397 2633 464 
Q 2878 531 3122 666 
L 3122 134 
Q 2881 22 2623 -34 
Q 2366 -91 2075 -91 
Q 1284 -91 818 406 
Q 353 903 353 1747 
Q 353 2603 823 3093 
Q 1294 3584 2113 3584 
Q 2378 3584 2631 3529 
Q 2884 3475 3122 3366 
z
" transform="scale(0.015625)"/>
       <path id="DejaVuSans-6b" d="M 581 4863 
L 1159 4863 
L 1159 1991 
L 2875 3500 
L 3609 3500 
L 1753 1863 
L 3688 0 
L 2938 0 
L 1159 1709 
L 1159 0 
L 581 0 
L 581 4863 
z
" transform="scale(0.015625)"/>
       <path id="DejaVuSans-5f" d="M 3263 -1063 
L 3263 -1509 
L -63 -1509 
L -63 -1063 
L 3263 -1063 
z
" transform="scale(0.015625)"/>
       <path id="DejaVuSans-70" d="M 1159 525 
L 1159 -1331 
L 581 -1331 
L 581 3500 
L 1159 3500 
L 1159 2969 
Q 1341 3281 1617 3432 
Q 1894 3584 2278 3584 
Q 2916 3584 3314 3078 
Q 3713 2572 3713 1747 
Q 3713 922 3314 415 
Q 2916 -91 2278 -91 
Q 1894 -91 1617 61 
Q 1341 213 1159 525 
z
M 3116 1747 
Q 3116 2381 2855 2742 
Q 2594 3103 2138 3103 
Q 1681 3103 1420 2742 
Q 1159 2381 1159 1747 
Q 1159 1113 1420 752 
Q 1681 391 2138 391 
Q 2594 391 2855 752 
Q 3116 1113 3116 1747 
z
" transform="scale(0.015625)"/>
       <path id="DejaVuSans-6f" d="M 1959 3097 
Q 1497 3097 1228 2736 
Q 959 2375 959 1747 
Q 959 1119 1226 758 
Q 1494 397 1959 397 
Q 2419 397 2687 759 
Q 2956 1122 2956 1747 
Q 2956 2369 2687 2733 
Q 2419 3097 1959 3097 
z
M 1959 3584 
Q 2709 3584 3137 3096 
Q 3566 2609 3566 1747 
Q 3566 888 3137 398 
Q 2709 -91 1959 -91 
Q 1206 -91 779 398 
Q 353 888 353 1747 
Q 353 2609 779 3096 
Q 1206 3584 1959 3584 
z
" transform="scale(0.015625)"/>
       <path id="DejaVuSans-75" d="M 544 1381 
L 544 3500 
L 1119 3500 
L 1119 1403 
Q 1119 906 1312 657 
Q 1506 409 1894 409 
Q 2359 409 2629 706 
Q 2900 1003 2900 1516 
L 2900 3500 
L 3475 3500 
L 3475 0 
L 2900 0 
L 2900 538 
Q 2691 219 2414 64 
Q 2138 -91 1772 -91 
Q 1169 -91 856 284 
Q 544 659 544 1381 
z
M 1991 3584 
L 1991 3584 
z
" transform="scale(0.015625)"/>
       <path id="DejaVuSans-6c" d="M 603 4863 
L 1178 4863 
L 1178 0 
L 603 0 
L 603 4863 
z
" transform="scale(0.015625)"/>
       <path id="DejaVuSans-69" d="M 603 3500 
L 1178 3500 
L 1178 0 
L 603 0 
L 603 3500 
z
M 603 4863 
L 1178 4863 
L 1178 4134 
L 603 4134 
L 603 4863 
z
" transform="scale(0.015625)"/>
      </defs>
      <use xlink:href="#DejaVuSans-74"/>
      <use xlink:href="#DejaVuSans-72" x="39.208984"/>
      <use xlink:href="#DejaVuSans-61" x="80.322266"/>
      <use xlink:href="#DejaVuSans-63" x="141.601562"/>
      <use xlink:href="#DejaVuSans-6b" x="196.582031"/>
      <use xlink:href="#DejaVuSans-5f" x="254.492188"/>
      <use xlink:href="#DejaVuSans-70" x="304.492188"/>
      <use xlink:href="#DejaVuSans-6f" x="367.96875"/>
      <use xlink:href="#DejaVuSans-70" x="429.150391"/>
      <use xlink:href="#DejaVuSans-75" x="492.626953"/>
      <use xlink:href="#DejaVuSans-6c" x="556.005859"/>
      <use xlink:href="#DejaVuSans-61" x="583.789062"/>
      <use xlink:href="#DejaVuSans-72" x="645.068359"/>
      <use xlink:href="#DejaVuSans-69" x="686.181641"/>
      <use xlink:href="#DejaVuSans-74" x="713.964844"/>
      <use xlink:href="#DejaVuSans-79" x="753.173828"/>
     </g>
    </g>
   </g>
   <g id="line2d_15">
    <path d="M 82.877557 281.999126 
L 90.713538 257.164093 
L 98.549519 273.264417 
L 106.3855 276.833301 
L 114.221481 280.514377 
L 122.057462 269.92378 
L 129.893443 267.416127 
L 137.729424 274.26297 
L 145.565405 277.714662 
L 153.401386 271.845421 
L 161.237367 277.911761 
L 169.073348 244.761629 
L 176.909329 279.853552 
L 184.74531 267.990505 
L 192.581291 258.660364 
L 200.417272 263.563521 
L 208.253253 270.881462 
L 216.089234 256.878728 
L 223.925215 276.870268 
L 231.761196 274.760427 
L 239.597176 273.109985 
L 247.433157 272.59769 
L 255.269138 260.927598 
L 263.105119 267.465493 
L 270.9411 273.052056 
L 278.777081 274.002943 
L 286.613062 265.8735 
L 294.449043 264.361004 
L 302.285024 272.349135 
L 310.121005 271.924797 
L 317.956986 267.909377 
L 325.792967 271.241377 
L 333.628948 264.951514 
L 341.464929 265.325744 
L 349.30091 252.247845 
L 357.136891 242.013387 
L 364.972872 245.46939 
L 372.808853 243.803214 
L 380.644834 245.858185 
L 388.480815 245.600935 
L 396.316796 243.587311 
L 404.152777 229.772174 
L 411.988758 230.84426 
L 419.824739 229.567188 
L 427.66072 200.67778 
L 435.496701 214.673297 
L 443.332682 214.715597 
L 451.168663 209.308109 
L 459.004644 206.99023 
L 466.840625 208.29326 
L 474.676606 206.833725 
L 482.512587 199.575161 
L 490.348568 211.814881 
L 498.184549 207.651833 
L 506.02053 204.131607 
L 513.856511 205.877379 
L 521.692492 202.657622 
L 529.528473 199.181922 
L 537.364454 202.266262 
L 545.200435 201.123378 
L 553.036416 201.449819 
L 560.872397 197.585261 
L 568.708378 196.071836 
L 576.544359 200.538176 
L 584.38034 203.643129 
L 592.216321 195.685604 
L 600.052302 200.1726 
L 607.888283 199.626835 
L 615.724264 200.665065 
L 623.560245 192.457082 
L 631.396226 190.423902 
L 639.232207 177.22193 
L 647.068188 185.190321 
L 654.904169 185.211034 
L 662.74015 186.627295 
L 670.576131 182.283854 
L 678.412112 181.640183 
L 686.248093 177.699005 
L 694.084074 163.68001 
L 701.920054 158.458366 
L 709.756035 164.091878 
L 717.592016 160.031021 
L 725.427997 162.937961 
L 733.263978 157.52525 
L 741.099959 154.026424 
L 748.93594 152.663176 
L 756.771921 159.707686 
L 764.607902 152.460333 
L 772.443883 148.598455 
L 780.279864 149.590011 
L 788.115845 149.113116 
L 795.951826 150.303495 
L 803.787807 150.951108 
L 811.623788 145.264593 
L 819.459769 141.42855 
L 827.29575 127.271354 
L 835.131731 124.919463 
L 842.967712 117.448076 
L 850.803693 112.197324 
" clip-path="url(#p9ce69d867b)" style="fill: none; stroke: #1f77b4; stroke-width: 1.5; stroke-linecap: square"/>
   </g>
   <g id="patch_3">
    <path d="M 44.48125 318.84375 
L 44.48125 25.918125 
" style="fill: none; stroke: #000000; stroke-width: 0.8; stroke-linejoin: miter; stroke-linecap: square"/>
   </g>
   <g id="patch_4">
    <path d="M 44.48125 318.84375 
L 889.2 318.84375 
" style="fill: none; stroke: #000000; stroke-width: 0.8; stroke-linejoin: miter; stroke-linecap: square"/>
   </g>
   <g id="text_17">
    <!-- Tracks Data - Track_Popularity over Year -->
    <g transform="translate(347.147187 19.918125) scale(0.12 -0.12)">
     <defs>
      <path id="DejaVuSans-54" d="M -19 4666 
L 3928 4666 
L 3928 4134 
L 2272 4134 
L 2272 0 
L 1638 0 
L 1638 4134 
L -19 4134 
L -19 4666 
z
" transform="scale(0.015625)"/>
      <path id="DejaVuSans-73" d="M 2834 3397 
L 2834 2853 
Q 2591 2978 2328 3040 
Q 2066 3103 1784 3103 
Q 1356 3103 1142 2972 
Q 928 2841 928 2578 
Q 928 2378 1081 2264 
Q 1234 2150 1697 2047 
L 1894 2003 
Q 2506 1872 2764 1633 
Q 3022 1394 3022 966 
Q 3022 478 2636 193 
Q 2250 -91 1575 -91 
Q 1294 -91 989 -36 
Q 684 19 347 128 
L 347 722 
Q 666 556 975 473 
Q 1284 391 1588 391 
Q 1994 391 2212 530 
Q 2431 669 2431 922 
Q 2431 1156 2273 1281 
Q 2116 1406 1581 1522 
L 1381 1569 
Q 847 1681 609 1914 
Q 372 2147 372 2553 
Q 372 3047 722 3315 
Q 1072 3584 1716 3584 
Q 2034 3584 2315 3537 
Q 2597 3491 2834 3397 
z
" transform="scale(0.015625)"/>
      <path id="DejaVuSans-20" transform="scale(0.015625)"/>
      <path id="DejaVuSans-44" d="M 1259 4147 
L 1259 519 
L 2022 519 
Q 2988 519 3436 956 
Q 3884 1394 3884 2338 
Q 3884 3275 3436 3711 
Q 2988 4147 2022 4147 
L 1259 4147 
z
M 628 4666 
L 1925 4666 
Q 3281 4666 3915 4102 
Q 4550 3538 4550 2338 
Q 4550 1131 3912 565 
Q 3275 0 1925 0 
L 628 0 
L 628 4666 
z
" transform="scale(0.015625)"/>
      <path id="DejaVuSans-2d" d="M 313 2009 
L 1997 2009 
L 1997 1497 
L 313 1497 
L 313 2009 
z
" transform="scale(0.015625)"/>
      <path id="DejaVuSans-50" d="M 1259 4147 
L 1259 2394 
L 2053 2394 
Q 2494 2394 2734 2622 
Q 2975 2850 2975 3272 
Q 2975 3691 2734 3919 
Q 2494 4147 2053 4147 
L 1259 4147 
z
M 628 4666 
L 2053 4666 
Q 2838 4666 3239 4311 
Q 3641 3956 3641 3272 
Q 3641 2581 3239 2228 
Q 2838 1875 2053 1875 
L 1259 1875 
L 1259 0 
L 628 0 
L 628 4666 
z
" transform="scale(0.015625)"/>
      <path id="DejaVuSans-76" d="M 191 3500 
L 800 3500 
L 1894 563 
L 2988 3500 
L 3597 3500 
L 2284 0 
L 1503 0 
L 191 3500 
z
" transform="scale(0.015625)"/>
      <path id="DejaVuSans-59" d="M -13 4666 
L 666 4666 
L 1959 2747 
L 3244 4666 
L 3922 4666 
L 2272 2222 
L 2272 0 
L 1638 0 
L 1638 2222 
L -13 4666 
z
" transform="scale(0.015625)"/>
     </defs>
     <use xlink:href="#DejaVuSans-54"/>
     <use xlink:href="#DejaVuSans-72" x="46.333984"/>
     <use xlink:href="#DejaVuSans-61" x="87.447266"/>
     <use xlink:href="#DejaVuSans-63" x="148.726562"/>
     <use xlink:href="#DejaVuSans-6b" x="203.707031"/>
     <use xlink:href="#DejaVuSans-73" x="261.617188"/>
     <use xlink:href="#DejaVuSans-20" x="313.716797"/>
     <use xlink:href="#DejaVuSans-44" x="345.503906"/>
     <use xlink:href="#DejaVuSans-61" x="422.505859"/>
     <use xlink:href="#DejaVuSans-74" x="483.785156"/>
     <use xlink:href="#DejaVuSans-61" x="522.994141"/>
     <use xlink:href="#DejaVuSans-20" x="584.273438"/>
     <use xlink:href="#DejaVuSans-2d" x="616.060547"/>
     <use xlink:href="#DejaVuSans-20" x="652.144531"/>
     <use xlink:href="#DejaVuSans-54" x="683.931641"/>
     <use xlink:href="#DejaVuSans-72" x="730.265625"/>
     <use xlink:href="#DejaVuSans-61" x="771.378906"/>
     <use xlink:href="#DejaVuSans-63" x="832.658203"/>
     <use xlink:href="#DejaVuSans-6b" x="887.638672"/>
     <use xlink:href="#DejaVuSans-5f" x="945.548828"/>
     <use xlink:href="#DejaVuSans-50" x="995.548828"/>
     <use xlink:href="#DejaVuSans-6f" x="1052.226562"/>
     <use xlink:href="#DejaVuSans-70" x="1113.408203"/>
     <use xlink:href="#DejaVuSans-75" x="1176.884766"/>
     <use xlink:href="#DejaVuSans-6c" x="1240.263672"/>
     <use xlink:href="#DejaVuSans-61" x="1268.046875"/>
     <use xlink:href="#DejaVuSans-72" x="1329.326172"/>
     <use xlink:href="#DejaVuSans-69" x="1370.439453"/>
     <use xlink:href="#DejaVuSans-74" x="1398.222656"/>
     <use xlink:href="#DejaVuSans-79" x="1437.431641"/>
     <use xlink:href="#DejaVuSans-20" x="1496.611328"/>
     <use xlink:href="#DejaVuSans-6f" x="1528.398438"/>
     <use xlink:href="#DejaVuSans-76" x="1589.580078"/>
     <use xlink:href="#DejaVuSans-65" x="1648.759766"/>
     <use xlink:href="#DejaVuSans-72" x="1710.283203"/>
     <use xlink:href="#DejaVuSans-20" x="1751.396484"/>
     <use xlink:href="#DejaVuSans-59" x="1783.183594"/>
     <use xlink:href="#DejaVuSans-65" x="1831.017578"/>
     <use xlink:href="#DejaVuSans-61" x="1892.541016"/>
     <use xlink:href="#DejaVuSans-72" x="1953.820312"/>
    </g>
   </g>
  </g>
 </g>
 <defs>
  <clipPath id="p9ce69d867b">
   <rect x="44.48125" y="25.918125" width="844.71875" height="292.925625"/>
  </clipPath>
 </defs>
</svg>
